<?xml version="1.0" standalone="no"?><!DOCTYPE svg PUBLIC "-//W3C//DTD SVG 1.1//EN" "http://www.w3.org/Graphics/SVG/1.1/DTD/svg11.dtd"><svg t="1655017760074" class="icon" viewBox="0 0 1024 1024" version="1.1" xmlns="http://www.w3.org/2000/svg" p-id="3859" xmlns:xlink="http://www.w3.org/1999/xlink" width="48" height="48"><defs><style type="text/css">@font-face { font-family: feedback-iconfont; src: url("//at.alicdn.com/t/font_1031158_u69w8yhxdu.woff2?t=1630033759944") format("woff2"), url("//at.alicdn.com/t/font_1031158_u69w8yhxdu.woff?t=1630033759944") format("woff"), url("//at.alicdn.com/t/font_1031158_u69w8yhxdu.ttf?t=1630033759944") format("truetype"); }
</style></defs><path d="M942.545455 68.049455H81.454545a34.909091 34.909091 0 0 0-34.90909 34.90909v818.08291c0 19.269818 15.639273 34.909091 34.90909 34.90909h861.09091a34.909091 34.909091 0 0 0 34.90909-34.90909V102.958545a34.909091 34.909091 0 0 0-34.90909-34.90909z m-34.909091 69.818181V663.738182l-165.003637-138.984727a34.862545 34.862545 0 0 0-45.847272 0.791272l-123.159273 111.104-274.385455-261.166545a34.816 34.816 0 0 0-47.616-0.465455L116.363636 498.734545V137.867636h791.272728z m-791.272728 748.264728v-297.937455a34.304 34.304 0 0 0 13.730909-7.354182l144.570182-132.282182 274.199273 260.980364a34.816 34.816 0 0 0 47.429818 0.651636l124.602182-112.360727 181.248 152.576c1.675636 1.396364 3.630545 2.141091 5.492364 3.165091v132.608h-791.272728z m558.871273-432.500364c65.768727 0 119.296-53.480727 119.296-119.249455s-53.480727-119.249455-119.296-119.249454c-65.722182 0-119.202909 53.480727-119.202909 119.249454s53.480727 119.249455 119.202909 119.249455z m0-168.634182c27.275636 0 49.477818 22.155636 49.477818 49.431273s-22.202182 49.431273-49.477818 49.431273a49.477818 49.477818 0 0 1 0-98.862546z" p-id="3860"></path></svg>